<svg xmlns="http://www.w3.org/2000/svg" viewBox="0 0 100 100"><rect fill="#25D366" width="100" height="100" rx="20"/><path fill="white" d="M50 20c-16.5 0-30 13.5-30 30 0 5.3 1.4 10.3 3.8 14.6L20 80l16-3.7c4.2 2.3 9 3.7 14 3.7 16.5 0 30-13.5 30-30s-13.5-30-30-30zm17.7 42.8c-.7 2-4.2 3.8-5.8 4-.3 0-.7.2-2.3.2-1 0-2.2-.2-3.7-.6-1-.3-2.3-.7-4-1.3-7-3-11.5-10-11.8-10.5-.3-.5-2.8-3.7-2.8-7 0-3.5 1.7-5.2 2.3-5.8.7-.7 1.3-1 1.8-1h1.3c.5 0 1 0 1.5 1 .5 1 1.7 4.2 1.8 4.5.2.3.3.7.2 1-.2.3-.3.5-.7.8l-1 1.2c-.3.3-.7.7-.3 1.3.3.7 1.5 2.5 3.3 4 2.3 2 4.2 2.7 4.8 3 .7.3 1 .2 1.5-.2.5-.5 2-2.2 2.5-3 .5-.7 1-1 1.7-.7.7.3 4.2 2 5 2.3.7.3 1.2.5 1.3.8.2.5.2 2.8-.5 4.8z"/></svg>
